<svg width="43" height="44" viewBox="0 0 43 44" fill="none" xmlns="http://www.w3.org/2000/svg">
<g clip-path="url(#clip0_54_87)">
<path d="M29.8772 37.7259C29.6932 37.739 29.5103 37.6871 29.3581 37.5786C24.1582 33.8696 18.4628 29.4778 16.6364 24.2552C15.9572 22.0067 17.1563 19.6105 19.3147 18.9029C21.3377 18.2398 23.5119 19.2945 24.3268 21.3341C25.4063 24.4202 31.6358 28.8625 33.9747 30.5348C34.356 30.7888 34.4673 31.3167 34.2234 31.7138C33.9795 32.1108 33.4728 32.2269 33.0916 31.9728C33.0775 31.9634 33.0636 31.9535 33.0501 31.9432C28.5953 28.7674 23.8871 25.0914 22.7805 21.9182C22.3159 20.5889 20.9048 19.9037 19.6288 20.3877C18.3528 20.8718 17.695 22.3418 18.1597 23.671C19.8197 28.4179 25.2818 32.611 30.2713 36.1691C30.6447 36.4355 30.7401 36.9668 30.4844 37.3557C30.3427 37.5712 30.1142 37.7073 29.864 37.725L29.8772 37.7259Z" fill="white"/>
<path d="M8.80452 34.9183C8.35301 34.95 7.96226 34.5945 7.93177 34.1242C7.90764 33.7527 8.11744 33.4079 8.45012 33.2719C9.34412 32.9078 12.1317 31.3526 10.4693 26.5939C8.45554 20.8356 11.304 14.4669 16.8316 12.369C16.8343 12.368 16.8371 12.3669 16.8398 12.366C22.2506 10.3523 28.2229 13.1425 30.3783 18.691C30.8119 19.0601 33.7626 21.2597 35.7796 22.7362C36.1417 23.0188 36.2153 23.5538 35.944 23.9311C35.6842 24.2923 35.1995 24.3804 34.8377 24.1323C29.2856 20.0689 29.0902 19.7733 28.9954 19.6329C28.9577 19.5765 28.9266 19.5155 28.9028 19.4514C27.1277 14.6783 22.0251 12.248 17.3985 13.9719C12.7208 15.7455 10.3091 21.1337 12.0117 26.0066C12.0119 26.0072 12.0121 26.0078 12.0122 26.0084C13.7411 30.9505 11.4975 33.8662 9.05044 34.8612C8.97181 34.8934 8.88885 34.9127 8.80452 34.9183Z" fill="white"/>
<path d="M11.6369 37.9803C11.1853 38.0121 10.7946 37.6566 10.7641 37.1862C10.74 36.8148 10.9498 36.4699 11.2825 36.334C14.5964 34.9854 15.7083 33.0842 13.5354 25.3728C12.2599 21.401 14.2073 17.0863 17.9571 15.5759C21.7832 14.1364 26.0069 16.1871 27.4095 20.165C27.6915 20.9712 28.8353 22.4817 35.2356 27.0468C35.6168 27.3009 35.7281 27.8288 35.4842 28.2258C35.2403 28.623 34.7336 28.7389 34.3524 28.4849C34.3383 28.4755 34.3244 28.4655 34.3109 28.4553C27.2402 23.4184 26.2657 21.8854 25.8698 20.7503C24.783 17.6509 21.4937 16.0518 18.5153 17.1749C15.5802 18.3844 14.0789 21.7862 15.1084 24.8945C17.3226 32.7571 16.5083 36.0452 11.8699 37.9275C11.7952 37.9571 11.7167 37.9749 11.6369 37.9803Z" fill="white"/>
<path d="M31.959 34.7998C31.7421 34.8159 31.5279 34.7415 31.3637 34.593C30.7812 34.1255 30.1764 33.6888 29.5517 33.2848C26.4695 31.182 21.3102 27.6635 19.7108 23.0867C19.5488 22.6466 19.7598 22.1529 20.1823 21.984C20.6048 21.8151 21.0787 22.035 21.2409 22.4751C21.2443 22.4844 21.2475 22.4937 21.2506 22.503C22.6697 26.5451 27.5368 29.8691 30.4487 31.8559C31.1377 32.2999 31.8023 32.7837 32.4393 33.3052C32.7802 33.6152 32.8153 34.1545 32.5177 34.5096C32.3755 34.6794 32.1747 34.7837 31.959 34.7998Z" fill="white"/>
<path d="M20.1515 42.4985L20.0992 42.5023C19.6467 42.5057 19.2772 42.1263 19.2739 41.655C19.2671 40.6646 19.3708 35.7115 22.15 35.5106C23.8969 35.5951 25.4943 36.5623 26.4295 38.1018C26.6258 38.3589 26.8384 38.6019 27.066 38.8293C27.4022 39.1449 27.4291 39.6847 27.1261 40.0349C26.8306 40.3766 26.3284 40.4129 25.9903 40.117C25.7001 39.8342 25.4291 39.5307 25.1791 39.2088C24.4173 38.2782 23.4764 37.1243 22.2633 37.212C21.3772 37.2761 20.9017 39.8774 20.9157 41.6408C20.9189 42.0922 20.5839 42.4682 20.1515 42.4985Z" fill="white"/>
<path d="M15.1335 41.1501C14.6821 41.1836 14.2901 40.8296 14.2579 40.3594C14.2325 39.9889 14.44 39.6439 14.771 39.5061C16.7908 38.6567 17.8598 34.0889 17.0182 31.8618C16.8273 31.4344 17.0053 30.9267 17.4155 30.7279C17.8258 30.529 18.3132 30.7144 18.5041 31.1418C18.5181 31.1732 18.5303 31.2054 18.5405 31.2384C19.5971 34.0045 18.4539 39.8012 15.383 41.0979C15.3029 41.1287 15.2188 41.1463 15.1335 41.1501Z" fill="white"/>
<path d="M7.45952 24.5918C7.00807 24.6244 6.61667 24.2696 6.58534 23.7993C6.062 15.8075 11.8468 8.88225 19.5171 8.31831C27.0603 7.77294 30.0618 12.1165 32.2526 15.2884C33.2869 16.7829 34.1795 18.0754 35.2244 18.3472C35.6646 18.4566 35.9363 18.917 35.8314 19.3755C35.7265 19.8341 35.2845 20.1172 34.8444 20.0079C34.8386 20.0065 34.8328 20.005 34.8271 20.0034C33.1989 19.5804 32.1444 18.0531 30.9227 16.2847C28.8465 13.2809 26.2632 9.54192 19.6306 10.0215C12.8623 10.5183 7.7576 16.6293 8.22017 23.6812C8.25149 24.1514 7.91097 24.5592 7.45952 24.5918Z" fill="white"/>
<path d="M8.67401 30.4936C8.36414 30.5167 8.0684 30.3551 7.9103 30.0765C7.38289 29.1954 7.01103 28.2231 6.81226 27.2056C6.78093 26.7353 7.12153 26.3275 7.57297 26.2949C8.02442 26.2623 8.41582 26.6171 8.44716 27.0874C8.63351 27.8365 8.92879 28.5516 9.32271 29.2077C9.55296 29.6135 9.42381 30.137 9.03422 30.3768C8.92445 30.4445 8.80114 30.4844 8.67401 30.4936Z" fill="white"/>
<path d="M31.188 10.8971C30.9018 10.918 30.6261 10.7815 30.4609 10.5373C29.5644 9.21253 24.8706 6.21999 18.5862 6.67434C12.0469 7.14714 8.78335 10.8793 8.15343 12.1501C7.96054 12.5766 7.47228 12.7594 7.06294 12.5584C6.6536 12.3574 6.47811 11.8488 6.67108 11.4223C6.67954 11.4036 6.68871 11.3852 6.69844 11.3672C7.49045 9.76805 11.1504 5.50068 18.4729 4.97126C25.3588 4.47341 30.5502 7.70889 31.8 9.55402C32.0607 9.93939 31.972 10.4719 31.6021 10.7434C31.48 10.833 31.3369 10.8862 31.188 10.8971Z" fill="white"/>
<path d="M27.4644 4.32123C27.3738 4.32795 27.2827 4.31897 27.1949 4.29451C26.8601 4.20064 26.5348 4.10095 26.2146 4.00433C23.6768 3.1766 20.9982 2.92553 18.3593 3.26825C14.4357 3.55193 13.5827 4.08761 12.4049 4.82822C12.1149 5.01178 11.8074 5.20344 11.4466 5.41089C11.0458 5.63127 10.5494 5.47143 10.3378 5.05379C10.1263 4.63624 10.2797 4.11905 10.6806 3.89867C11.0147 3.71191 11.297 3.53412 11.565 3.36585C12.8797 2.53497 13.925 1.8775 18.2459 1.5651C21.0791 1.20849 23.9526 1.48132 26.6772 2.36566C26.9857 2.45975 27.2944 2.55551 27.6186 2.63988C28.058 2.7525 28.3266 3.21495 28.2185 3.6727C28.132 4.03849 27.8256 4.3021 27.4644 4.32123Z" fill="white"/>
<path d="M34.798 15.7702C34.4425 15.7956 34.112 15.5788 33.9803 15.2338C33.4811 14.1455 32.8896 13.1058 32.2128 12.1272C31.9495 11.7436 32.0346 11.2104 32.4028 10.9361C32.771 10.6618 33.2829 10.7505 33.5462 11.1341C34.3006 12.2245 34.9554 13.386 35.5022 14.6035C35.6693 15.0416 35.4638 15.5379 35.0433 15.7119C34.9649 15.7444 34.8822 15.7641 34.798 15.7702Z" fill="white"/>
</g>
<defs>
<clipPath id="clip0_54_87">
<rect width="39.365" height="40.9923" fill="white" transform="matrix(0.997397 -0.0721116 0.0664737 0.997788 0.25235 2.83862)"/>
</clipPath>
</defs>
</svg>
