<svg width="214" height="223" viewBox="0 0 214 223" fill="none" xmlns="http://www.w3.org/2000/svg">
<path d="M94.9572 200.422L97.5409 200.629L104.63 209.911L105.268 201.247L107.421 201.419L106.163 218.508L104.01 218.336L104.62 210.055L96.4738 217.734L94.0335 217.539L102.062 209.826L94.9572 200.422Z" fill="#00FFD1"/>
<path d="M74.1588 208.409C72.6735 207.859 71.659 206.895 71.1154 205.516C70.5568 204.132 70.6368 202.388 71.3552 200.283C71.8256 198.905 72.4336 197.817 73.1794 197.019C73.9049 196.23 74.7255 195.733 75.6411 195.526C76.5365 195.329 77.4868 195.417 78.492 195.789C79.1072 196.017 79.6264 196.303 80.0497 196.647C80.4729 196.992 80.8131 197.357 81.0704 197.742C81.3074 198.137 81.4917 198.538 81.6232 198.944L81.7582 198.994C81.8161 198.726 81.8972 198.389 82.0016 197.984C82.106 197.58 82.2073 197.233 82.3055 196.946L84.0111 191.949L85.9916 192.682L79.9752 210.308L78.3549 209.708L78.6508 207.95L78.5607 207.916C78.2018 208.176 77.8082 208.388 77.3799 208.553C76.9366 208.713 76.454 208.79 75.932 208.785C75.395 208.773 74.804 208.648 74.1588 208.409ZM75.0926 206.862C75.9028 207.162 76.6098 207.245 77.2134 207.11C77.8119 206.991 78.3297 206.662 78.7666 206.125C79.2036 205.587 79.5924 204.844 79.933 203.896L80.0648 203.51C80.406 202.51 80.5904 201.624 80.6181 200.849C80.6458 200.075 80.4741 199.414 80.1031 198.867C79.717 198.315 79.0888 197.878 78.2186 197.555C77.4835 197.283 76.8135 197.265 76.2089 197.502C75.5892 197.733 75.048 198.155 74.5851 198.768C74.1021 199.391 73.7056 200.156 73.3955 201.065C72.9199 202.458 72.8101 203.671 73.066 204.704C73.3068 205.731 73.9824 206.45 75.0926 206.862Z" fill="#00FFD1"/>
<path d="M58.7175 201.232L56.8674 199.941L58.543 192.19C58.6454 191.735 58.7523 191.303 58.8637 190.893C58.9619 190.475 59.0689 190.072 59.1847 189.685C59.2919 189.311 59.4144 188.958 59.5523 188.625L59.4736 188.57C59.1785 188.852 58.7727 189.202 58.256 189.621C57.7306 190.054 57.1987 190.482 56.6602 190.906L50.569 195.546L48.6992 194.241L61.1634 185.099C61.8453 184.6 62.517 184.221 63.1783 183.961C63.8352 183.679 64.4929 183.572 65.1514 183.642C65.8055 183.689 66.4737 183.95 67.156 184.426C67.471 184.646 67.7335 184.859 67.9438 185.064C68.1626 185.255 68.3444 185.431 68.489 185.59L67.5804 187.003C67.4534 186.876 67.3001 186.73 67.1206 186.566C66.928 186.392 66.7201 186.228 66.4971 186.072C66.0903 185.788 65.6907 185.626 65.2981 185.586C64.9012 185.524 64.5025 185.567 64.1022 185.717C63.7105 185.853 63.3171 186.066 62.9218 186.356L61.4492 187.404L58.7175 201.232Z" fill="#00FFD1"/>
<path d="M33.0174 179.229L34.2867 177.987L38.1282 182.246L46.0525 174.491L47.4669 176.059L38.2733 185.057L33.0174 179.229Z" fill="#00FFD1"/>
<path d="M31.1297 153.207L32.1728 155.071L22.675 160.839L24.5267 164.148C26.3416 163.233 27.9231 162.506 29.2711 161.968C30.6055 161.438 31.7454 161.102 32.691 160.958C33.6365 160.814 34.4121 160.857 35.0177 161.088C35.6233 161.319 36.0941 161.734 36.43 162.335C36.5316 162.516 36.6195 162.706 36.6937 162.904C36.7738 163.08 36.8177 163.241 36.8255 163.386L35.4716 164.208C35.4521 164.107 35.4218 164.004 35.3808 163.898C35.3398 163.792 35.2919 163.69 35.2372 163.592C35.0654 163.285 34.786 163.081 34.3992 162.979C34.0124 162.877 33.5113 162.882 32.8959 162.994C32.2727 163.092 31.5313 163.289 30.6717 163.587C29.7984 163.893 28.8001 164.303 27.6768 164.816C26.5534 165.33 25.3011 165.941 23.9199 166.649L20.1344 159.884L31.1297 153.207Z" fill="#00FFD1"/>
<path d="M17.2831 133.594C18.3085 133.281 19.2581 133.142 20.1318 133.177C20.9859 133.2 21.7598 133.382 22.4536 133.723C23.1431 134.048 23.7349 134.528 24.2291 135.163C24.7037 135.788 25.0644 136.539 25.3111 137.417C25.5405 138.233 25.6149 139.03 25.5342 139.807C25.4382 140.589 25.1861 141.318 24.778 141.994C24.3699 142.671 23.8167 143.274 23.1185 143.805C22.4006 144.325 21.5289 144.741 20.5035 145.054C19.1415 145.469 17.9287 145.588 16.8653 145.411C15.7866 145.238 14.8812 144.795 14.1491 144.082C13.4016 143.373 12.8613 142.426 12.528 141.24C12.212 140.115 12.1875 139.053 12.4544 138.051C12.7018 137.04 13.2328 136.15 14.0475 135.383C14.8425 134.606 15.9211 134.009 17.2831 133.594ZM19.9127 142.951C20.8769 142.657 21.684 142.277 22.334 141.812C22.9644 141.335 23.3952 140.769 23.6263 140.113C23.8574 139.457 23.8561 138.713 23.6223 137.882C23.3886 137.05 23.0047 136.423 22.4706 136C21.9365 135.578 21.2828 135.351 20.5095 135.319C19.7167 135.277 18.8381 135.402 17.874 135.696C16.8945 135.995 16.0972 136.38 15.4821 136.852C14.867 137.324 14.4516 137.886 14.2358 138.537C14.0003 139.177 14.0016 139.921 14.2397 140.768C14.5947 142.031 15.2654 142.822 16.252 143.14C17.2386 143.457 18.4588 143.395 19.9127 142.951Z" fill="#00FFD1"/>
<path d="M21.7363 116.274C21.7818 117.41 21.5908 118.435 21.1632 119.35C20.7349 120.25 20.0435 120.977 19.089 121.531C18.1338 122.069 16.8969 122.371 15.3783 122.437C13.7958 122.506 12.4985 122.298 11.4862 121.814C10.474 121.329 9.71813 120.65 9.21864 119.775C8.7185 118.883 8.44532 117.862 8.39912 116.711C8.37281 116.056 8.41939 115.421 8.53887 114.807C8.64236 114.194 8.78231 113.692 8.95873 113.3L10.7351 113.871C10.6066 114.261 10.4887 114.715 10.3814 115.232C10.274 115.749 10.2293 116.231 10.2473 116.679C10.2819 117.542 10.4943 118.246 10.8844 118.789C11.2746 119.333 11.8347 119.725 12.565 119.965C13.2952 120.206 14.1958 120.302 15.2668 120.256C16.2898 120.211 17.1555 120.037 17.8639 119.734C18.5723 119.431 19.0995 119 19.4453 118.44C19.7911 117.881 19.9477 117.193 19.9149 116.378C19.8867 115.674 19.7901 115.062 19.625 114.541C19.4593 114.003 19.2636 113.515 19.0378 113.077L20.9081 112.995C21.1492 113.417 21.3363 113.89 21.4693 114.412C21.6178 114.918 21.7067 115.539 21.7363 116.274Z" fill="#00FFD1"/>
<path d="M8.85002 99.1151L9.28349 96.9012L16.9786 95.6904C17.4319 95.6232 17.8665 95.5683 18.2823 95.5258C18.7012 95.4677 19.1093 95.4235 19.5064 95.3934C19.8879 95.36 20.2569 95.3484 20.6136 95.3588L20.632 95.2646C20.2592 95.0872 19.7797 94.83 19.1937 94.4928C18.592 94.1524 17.9918 93.8041 17.3932 93.4479L10.7591 89.3643L11.1972 87.1268L24.4523 95.6102C25.1764 96.0748 25.788 96.5727 26.2872 97.104C26.8051 97.6229 27.1636 98.2061 27.3629 98.8536C27.5809 99.4887 27.6099 100.214 27.4501 101.031C27.3763 101.408 27.2883 101.733 27.186 102.005C27.0993 102.281 27.0126 102.516 26.9257 102.71L25.2823 102.361C25.3475 102.195 25.4187 101.998 25.4961 101.769C25.5766 101.524 25.643 101.269 25.6953 101.002C25.7906 100.515 25.7781 100.079 25.6579 99.6934C25.5565 99.2957 25.3582 98.9347 25.0631 98.6103C24.7836 98.2892 24.4338 97.9941 24.0138 97.7249L22.4761 96.7113L8.85002 99.1151Z" fill="#00FFD1"/>
<path d="M20.5357 65.876L18.8316 69.7148L28.8209 74.527L27.9738 76.4354L17.9845 71.6232L16.2999 75.4181L14.6999 74.6473L18.9357 65.1052L20.5357 65.876Z" fill="#00FFD1"/>
<path d="M37.2299 48.1937C38.06 48.8719 38.7106 49.5893 39.1817 50.3458C39.65 51.0794 39.9484 51.8393 40.0769 52.6256C40.215 53.3991 40.1756 54.1824 39.9587 54.9755C39.739 55.7457 39.3549 56.4951 38.8064 57.2237C38.2963 57.9012 37.7133 58.4364 37.0572 58.8294C36.3887 59.2122 35.6727 59.4323 34.9091 59.4897C34.1454 59.5471 33.3563 59.4391 32.5415 59.1656C31.724 58.8693 30.9002 58.382 30.07 57.7037C28.9673 56.8028 28.1824 55.8518 27.7153 54.8508C27.2358 53.8397 27.0673 52.8142 27.2097 51.7745C27.3397 50.7246 27.7752 49.7075 28.5163 48.7233C29.2188 47.7902 30.0391 47.1391 30.9773 46.7702C31.9127 46.3783 32.9136 46.2981 33.9802 46.5295C35.0439 46.738 36.1272 47.2927 37.2299 48.1937ZM31.3836 55.959C32.1642 56.5967 32.9227 57.0513 33.659 57.3225C34.3925 57.5709 35.0826 57.5979 35.7292 57.4037C36.3757 57.2094 36.9589 56.7671 37.4785 56.0768C37.9982 55.3866 38.2716 54.6912 38.2986 53.9908C38.3257 53.2903 38.1312 52.605 37.7153 51.9348C37.2965 51.2417 36.6969 50.5762 35.9163 49.9385C35.1233 49.2906 34.3662 48.8475 33.6451 48.6092C32.9239 48.371 32.2463 48.3541 31.6121 48.5585C30.9751 48.74 30.392 49.1823 29.8627 49.8853C29.0736 50.9335 28.8355 51.9674 29.1485 52.987C29.4615 54.0066 30.2066 54.9972 31.3836 55.959Z" fill="#00FFD1"/>
<path d="M45.56 36.973C46.0142 37.5724 46.513 37.8866 47.0566 37.9157C47.6029 37.9218 48.185 37.6709 48.8029 37.1627C49.4208 36.6546 49.9106 36.0966 50.2723 35.4886C50.6244 34.8679 50.9405 34.1733 51.2207 33.4047L47.8869 29.0051L49.5182 27.6637L57.2873 37.9167L55.656 39.2581L52.1918 34.6864C51.9159 35.5135 51.5882 36.259 51.2088 36.923C50.832 37.564 50.2666 38.1945 49.5128 38.8144C48.4994 39.6477 47.5008 40.0239 46.5168 39.9431C45.5451 39.852 44.7115 39.3474 44.0157 38.4292L41.1023 34.5844L42.7336 33.2429L45.56 36.973Z" fill="#00FFD1"/>
<path d="M61.9551 19.7575L64.1152 24.6543L70.4145 21.6386L68.2545 16.7419L70.1594 15.8299L75.3514 27.5996L73.4464 28.5116L71.1313 23.2635L64.832 26.2792L67.147 31.5273L65.2421 32.4392L60.0501 20.6695L61.9551 19.7575Z" fill="#00FFD1"/>
<path d="M94.4728 15.707C94.6651 16.7616 94.6947 17.7262 94.5614 18.6006C94.441 19.4561 94.1735 20.2185 93.7589 20.8877C93.36 21.5538 92.819 22.1093 92.1359 22.5544C91.4656 22.9807 90.6831 23.2823 89.7884 23.4594C88.9566 23.6241 88.1617 23.6346 87.4037 23.4911C86.6428 23.3318 85.9518 23.0201 85.3305 22.556C84.7092 22.0919 84.1762 21.4879 83.7316 20.7442C83.2998 19.9816 82.9877 19.0731 82.7953 18.0185C82.5398 16.6176 82.5599 15.3904 82.8557 14.3371C83.1485 13.268 83.6885 12.3946 84.4756 11.7169C85.2598 11.0235 86.2562 10.5572 87.4647 10.318C88.6105 10.0912 89.6624 10.1521 90.6204 10.5006C91.5912 10.8303 92.4089 11.435 93.0734 12.3146C93.7508 13.1753 94.2173 14.3062 94.4728 15.707ZM84.9378 17.5944C85.1186 18.586 85.4021 19.4269 85.7882 20.117C86.187 20.7882 86.697 21.2662 87.3181 21.551C87.9393 21.8358 88.6736 21.8943 89.5212 21.7265C90.3687 21.5587 91.0313 21.2237 91.5088 20.7215C91.9864 20.2193 92.2847 19.5813 92.4038 18.8075C92.5357 18.0149 92.5112 17.1228 92.3303 16.1311C92.1466 15.1237 91.8567 14.2923 91.4607 13.6368C91.0647 12.9813 90.5576 12.519 89.9393 12.25C89.3339 11.9621 88.5996 11.9036 87.7363 12.0745C86.4493 12.3292 85.5929 12.9391 85.1672 13.904C84.7415 14.8689 84.665 16.0991 84.9378 17.5944Z" fill="#00FFD1"/>
<path d="M118.169 22.0582L115.584 21.8646L108.452 12.6181L107.854 21.2854L105.7 21.1241L106.88 4.02875L109.034 4.19012L108.462 12.4744L116.573 4.75493L119.014 4.93782L111.021 12.6902L118.169 22.0582Z" fill="#00FFD1"/>
<path d="M138.931 13.9682C140.419 14.5111 141.438 15.4703 141.988 16.8458C142.553 18.2268 142.482 19.9713 141.773 22.0793C141.309 23.4594 140.706 24.5504 139.964 25.3523C139.242 26.1445 138.423 26.6462 137.509 26.8573C136.614 27.0587 135.663 26.9757 134.656 26.6083C134.04 26.3835 133.519 26.0999 133.095 25.7576C132.67 25.4153 132.328 25.0521 132.069 24.6682C131.83 24.2746 131.644 23.8746 131.51 23.4684L131.375 23.419C131.318 23.6878 131.239 24.0249 131.136 24.4301C131.034 24.8354 130.934 25.1821 130.837 25.4703L129.155 30.475L127.171 29.7512L133.105 12.0981L134.729 12.6903L134.441 14.4497L134.531 14.4826C134.889 14.2215 135.282 14.0073 135.709 13.8398C136.152 13.6777 136.634 13.5983 137.156 13.6015C137.693 13.6101 138.285 13.7324 138.931 13.9682ZM138.004 15.52C137.193 15.2239 136.485 15.1445 135.882 15.2821C135.284 15.4044 134.768 15.7354 134.334 16.2749C133.899 16.8144 133.514 17.5592 133.177 18.5092L133.047 18.8959C132.711 19.8968 132.531 20.7845 132.507 21.5589C132.482 22.3333 132.657 22.993 133.031 23.538C133.42 24.0884 134.05 24.5226 134.922 24.8407C135.658 25.1094 136.328 25.124 136.932 24.8846C137.55 24.6506 138.09 24.2259 138.55 23.6105C139.03 22.9855 139.423 22.218 139.729 21.308C140.198 19.9128 140.302 18.6994 140.041 17.6678C139.796 16.6417 139.117 15.9258 138.004 15.52Z" fill="#00FFD1"/>
<path d="M182.216 68.9561L181.164 67.097L190.634 61.2831L188.766 57.9826C186.956 58.9065 185.378 59.6408 184.033 60.1853C182.701 60.7215 181.563 61.0638 180.618 61.2123C179.673 61.3608 178.897 61.3211 178.291 61.0931C177.684 60.8651 177.212 60.4518 176.873 59.8529C176.77 59.6719 176.682 59.4825 176.606 59.2847C176.525 59.1092 176.481 58.949 176.472 58.8041L177.822 57.9754C177.842 58.0757 177.873 58.1787 177.914 58.2846C177.956 58.3905 178.004 58.4921 178.059 58.5896C178.233 58.896 178.513 59.0991 178.9 59.1991C179.288 59.2991 179.789 59.2917 180.403 59.1769C181.026 59.0761 181.766 58.8748 182.625 58.5731C183.496 58.2631 184.493 57.8484 185.613 57.3291C186.734 56.8099 187.984 56.1929 189.361 55.4784L193.178 62.2255L182.216 68.9561Z" fill="#00FFD1"/>
<path d="M196.15 88.5013C195.126 88.819 194.177 88.9628 193.303 88.9325C192.449 88.9129 191.675 88.7346 190.979 88.3977C190.288 88.0762 189.694 87.599 189.197 86.9661C188.72 86.3438 188.356 85.5943 188.105 84.7174C187.872 83.9021 187.794 83.1056 187.871 82.328C187.963 81.5457 188.212 80.8153 188.617 80.1369C189.022 79.4585 189.572 78.8522 190.268 78.3181C190.983 77.7945 191.853 77.3739 192.877 77.0561C194.237 76.634 195.449 76.5091 196.513 76.6813C197.592 76.8487 198.5 77.2873 199.235 77.997C199.986 78.7019 200.53 79.6466 200.869 80.8312C201.19 81.9541 201.22 83.0169 200.957 84.0195C200.715 85.0327 200.188 85.9248 199.377 86.6957C198.585 87.4773 197.51 88.0792 196.15 88.5013ZM193.477 79.1559C192.514 79.4547 191.709 79.8387 191.061 80.3077C190.433 80.7874 190.005 81.3557 189.777 82.0127C189.549 82.6697 189.554 83.4135 189.791 84.2442C190.029 85.0749 190.416 85.7002 190.952 86.12C191.488 86.5399 192.142 86.7638 192.916 86.7917C193.709 86.8303 194.587 86.7003 195.549 86.4015C196.527 86.0979 197.323 85.7087 197.936 85.2337C198.548 84.7588 198.961 84.1952 199.174 83.543C199.406 82.9014 199.402 82.1575 199.16 81.3115C198.799 80.05 198.124 79.2628 197.137 78.9497C196.149 78.6366 194.929 78.7054 193.477 79.1559Z" fill="#00FFD1"/>
<path d="M191.775 105.842C191.724 104.707 191.91 103.681 192.334 102.763C192.758 101.862 193.446 101.131 194.398 100.573C195.35 100.03 196.586 99.7214 198.104 99.6477C199.686 99.5709 200.984 99.7722 201.999 100.252C203.013 100.731 203.772 101.407 204.276 102.28C204.78 103.168 205.058 104.188 205.109 105.339C205.139 105.994 205.095 106.629 204.978 107.243C204.878 107.857 204.74 108.36 204.565 108.753L202.786 108.191C202.913 107.8 203.029 107.346 203.134 106.828C203.239 106.311 203.281 105.828 203.261 105.38C203.223 104.517 203.007 103.815 202.614 103.273C202.222 102.732 201.66 102.342 200.929 102.106C200.197 101.869 199.296 101.776 198.226 101.828C197.203 101.878 196.338 102.056 195.631 102.363C194.924 102.669 194.399 103.103 194.056 103.665C193.712 104.226 193.559 104.914 193.595 105.729C193.627 106.433 193.726 107.045 193.894 107.565C194.062 108.102 194.26 108.589 194.488 109.026L192.618 109.117C192.375 108.696 192.185 108.225 192.05 107.703C191.899 107.197 191.807 106.577 191.775 105.842Z" fill="#00FFD1"/>
<path d="M204.738 122.937L204.315 125.152L196.625 126.401C196.172 126.471 195.738 126.528 195.322 126.572C194.903 126.632 194.495 126.679 194.098 126.711C193.717 126.746 193.348 126.759 192.991 126.751L192.973 126.845C193.347 127.021 193.828 127.275 194.415 127.61C195.019 127.947 195.621 128.292 196.221 128.646L202.874 132.696L202.446 134.936L189.151 126.518C188.425 126.057 187.811 125.563 187.309 125.034C186.789 124.517 186.428 123.936 186.226 123.29C186.005 122.656 185.972 121.93 186.128 121.113C186.2 120.736 186.287 120.41 186.388 120.137C186.473 119.861 186.559 119.625 186.645 119.431L188.29 119.772C188.226 119.938 188.155 120.136 188.079 120.365C188 120.61 187.934 120.866 187.883 121.134C187.79 121.621 187.805 122.057 187.927 122.441C188.03 122.839 188.23 123.199 188.527 123.522C188.808 123.841 189.159 124.135 189.58 124.402L191.122 125.408L204.738 122.937Z" fill="#00FFD1"/>
<path d="M193.205 156.232L194.891 152.385L184.878 147.622L185.717 145.709L195.73 150.473L197.396 146.67L199 147.433L194.809 156.994L193.205 156.232Z" fill="#00FFD1"/>
<path d="M176.592 173.995C175.759 173.321 175.105 172.607 174.63 171.852C174.158 171.121 173.856 170.363 173.724 169.577C173.582 168.804 173.618 168.021 173.831 167.227C174.047 166.456 174.427 165.704 174.973 164.973C175.479 164.293 176.06 163.755 176.714 163.359C177.381 162.973 178.096 162.75 178.859 162.689C179.623 162.628 180.412 162.732 181.228 163.001C182.047 163.294 182.874 163.777 183.707 164.451C184.814 165.347 185.604 166.294 186.075 167.293C186.56 168.302 186.733 169.326 186.596 170.367C186.471 171.417 186.04 172.436 185.304 173.424C184.605 174.36 183.788 175.015 182.852 175.389C181.918 175.785 180.918 175.87 179.85 175.644C178.785 175.44 177.699 174.891 176.592 173.995ZM182.402 166.202C181.618 165.568 180.857 165.117 180.12 164.85C179.385 164.605 178.695 164.581 178.049 164.778C177.403 164.976 176.822 165.421 176.306 166.114C175.79 166.806 175.519 167.503 175.496 168.203C175.472 168.904 175.67 169.588 176.089 170.257C176.511 170.948 177.114 171.61 177.897 172.244C178.694 172.888 179.453 173.328 180.175 173.562C180.897 173.797 181.575 173.811 182.208 173.603C182.845 173.419 183.426 172.974 183.952 172.268C184.736 171.216 184.969 170.181 184.651 169.163C184.333 168.145 183.583 167.158 182.402 166.202Z" fill="#00FFD1"/>
<path d="M168.313 185.259C167.856 184.661 167.356 184.349 166.812 184.323C166.266 184.319 165.685 184.573 165.07 185.084C164.454 185.595 163.967 186.156 163.608 186.766C163.259 187.388 162.947 188.084 162.67 188.854L166.025 193.238L164.4 194.587L156.582 184.371L158.207 183.022L161.693 187.577C161.965 186.749 162.289 186.001 162.665 185.336C163.039 184.693 163.601 184.06 164.352 183.436C165.361 182.598 166.358 182.217 167.343 182.293C168.315 182.379 169.151 182.88 169.851 183.795L172.782 187.626L171.157 188.975L168.313 185.259Z" fill="#00FFD1"/>
<path d="M151.998 202.556L149.816 197.67L143.531 200.716L145.714 205.603L143.813 206.524L138.567 194.779L140.467 193.857L142.807 199.095L149.091 196.048L146.752 190.811L148.652 189.89L153.899 201.635L151.998 202.556Z" fill="#00FFD1"/>
<path d="M119.5 206.769C119.303 205.715 119.269 204.751 119.398 203.876C119.515 203.019 119.779 202.256 120.19 201.584C120.586 200.916 121.124 200.358 121.806 199.91C122.474 199.48 123.255 199.174 124.149 198.993C124.98 198.824 125.774 198.81 126.533 198.949C127.295 199.105 127.987 199.413 128.61 199.874C129.234 200.335 129.769 200.937 130.217 201.678C130.653 202.439 130.969 203.346 131.166 204.4C131.428 205.799 131.414 207.027 131.123 208.081C130.835 209.152 130.299 210.028 129.515 210.71C128.734 211.407 127.74 211.878 126.533 212.124C125.388 212.356 124.336 212.3 123.376 211.956C122.404 211.632 121.584 211.031 120.915 210.155C120.234 209.297 119.762 208.169 119.5 206.769ZM129.026 204.834C128.84 203.843 128.553 203.004 128.164 202.316C127.762 201.646 127.25 201.171 126.627 200.889C126.005 200.607 125.271 200.553 124.424 200.725C123.577 200.897 122.916 201.235 122.441 201.739C121.966 202.244 121.67 202.884 121.555 203.658C121.427 204.451 121.455 205.343 121.641 206.334C121.829 207.341 122.123 208.171 122.522 208.824C122.921 209.478 123.43 209.938 124.049 210.204C124.656 210.489 125.391 210.543 126.253 210.368C127.539 210.107 128.392 209.493 128.813 208.526C129.235 207.559 129.306 206.328 129.026 204.834Z" fill="#00FFD1"/>
</svg>
