<svg width="31" height="31" viewBox="0 0 31 31" fill="none" xmlns="http://www.w3.org/2000/svg">
<g clip-path="url(#clip0_335_57)">
<path d="M15.5 31C24.0604 31 31 24.0604 31 15.5C31 6.93961 24.0604 0 15.5 0C6.93961 0 0 6.93961 0 15.5C0 24.0604 6.93961 31 15.5 31Z" fill="#25D366"/>
<path fill-rule="evenodd" clip-rule="evenodd" d="M16.0109 24.1235H16.0071C14.4645 24.123 12.9488 23.7359 11.6026 23.0016L6.71667 24.2834L8.02423 19.5073C7.21765 18.1095 6.79327 16.524 6.79392 14.8995C6.79598 9.81779 10.9306 5.68335 16.0108 5.68335C18.4764 5.68442 20.7905 6.64429 22.5307 8.38643C24.2708 10.1285 25.2286 12.4441 25.2276 14.9068C25.2256 19.9875 21.0926 24.1214 16.0109 24.1235ZM11.829 21.3331L12.1087 21.4991C13.2849 22.1971 14.6332 22.5664 16.0078 22.5669H16.0109C20.2332 22.5669 23.6697 19.1303 23.6714 14.9063C23.6723 12.8593 22.8762 10.9347 21.4299 9.48667C19.9835 8.03865 18.0601 7.24078 16.0139 7.24007C11.7883 7.24007 8.3518 10.6764 8.35012 14.9001C8.34954 16.3476 8.75454 17.7573 9.52134 18.9769L9.70353 19.2668L8.92962 22.0937L11.829 21.3331ZM20.3388 16.8911C20.4995 16.9688 20.608 17.0212 20.6543 17.0985C20.7118 17.1946 20.7118 17.6557 20.52 18.1937C20.328 18.7316 19.4079 19.2226 18.9655 19.2887C18.5687 19.348 18.0666 19.3728 17.5149 19.1974C17.1805 19.0913 16.7516 18.9496 16.2021 18.7123C14.0431 17.7801 12.5841 15.6876 12.3083 15.2921C12.289 15.2644 12.2755 15.245 12.2679 15.2349L12.2661 15.2325C12.1443 15.0698 11.3276 13.9802 11.3276 12.8526C11.3276 11.7918 11.8487 11.2358 12.0885 10.9798C12.105 10.9623 12.1201 10.9462 12.1336 10.9314C12.3447 10.7008 12.5942 10.6432 12.7477 10.6432C12.9012 10.6432 13.0549 10.6446 13.1892 10.6514C13.2057 10.6522 13.2229 10.6521 13.2407 10.6519C13.3749 10.6512 13.5422 10.6502 13.7073 11.0467C13.7708 11.1992 13.8637 11.4255 13.9617 11.664C14.1598 12.1465 14.3788 12.6795 14.4173 12.7566C14.4749 12.8719 14.5133 13.0064 14.4365 13.1601C14.425 13.1832 14.4144 13.2049 14.4042 13.2257C14.3465 13.3435 14.3041 13.43 14.2062 13.5443C14.1678 13.5892 14.128 13.6376 14.0882 13.6861C14.009 13.7826 13.9298 13.879 13.8608 13.9478C13.7455 14.0626 13.6255 14.1872 13.7598 14.4177C13.8941 14.6483 14.3564 15.4024 15.0409 16.0131C15.7769 16.6696 16.4166 16.947 16.7408 17.0876C16.8041 17.1151 16.8554 17.1373 16.893 17.1562C17.1232 17.2715 17.2575 17.2522 17.3919 17.0985C17.5262 16.9448 17.9676 16.426 18.1211 16.1955C18.2746 15.9651 18.4282 16.0034 18.6392 16.0802C18.8504 16.1572 19.9826 16.7143 20.2129 16.8295C20.2579 16.852 20.2999 16.8724 20.3388 16.8911Z" fill="#FDFDFD"/>
</g>
<defs>
<clipPath id="clip0_335_57">
<rect width="31" height="31" fill="white"/>
</clipPath>
</defs>
</svg>
