<svg width="28" height="28" viewBox="0 0 28 28" fill="none" xmlns="http://www.w3.org/2000/svg">
<path d="M14.0357 0C18.1284 0 22.2212 0 26.3139 0C27.6623 0 28.2538 0.600214 27.8989 1.92069C27.5914 3.09711 27.1655 4.32154 26.5031 5.3299C25.2729 7.20257 23.8772 8.93119 22.505 10.7078C22.1738 11.14 22.0556 11.5241 22.4104 11.9803C24.6579 14.8373 23.9481 17.3822 21.2039 19.4229C20.7781 19.735 20.3049 20.0472 19.8081 20.2632C19.335 20.4793 19.264 20.7434 19.4533 21.1996C20.092 22.6881 20.7071 24.1766 21.3695 25.6412C21.9373 26.8896 21.2985 27.994 19.9027 27.994C15.952 27.994 12.0249 28.018 8.0741 27.97C6.9622 27.946 5.82665 26.9856 6.58368 25.6171C7.34072 24.2247 7.88484 22.7121 8.52358 21.2716C8.7365 20.7914 8.64187 20.5033 8.12141 20.2632C6.93854 19.687 5.89762 18.9188 5.11693 17.8144C3.88675 16.1098 3.88675 14.3091 5.23522 12.4845C6.18151 11.188 5.82665 11.116 5.06962 10.2277C3.43727 8.30697 1.85223 6.33826 0.76399 4.03344C0.432788 3.33719 0.196215 2.56892 0.0542708 1.80064C-0.182302 0.624223 0.361816 0 1.54468 0C5.70837 0 9.87205 0 14.0357 0Z" fill="url(#paint0_linear_432_36)"/>
<defs>
<linearGradient id="paint0_linear_432_36" x1="12.875" y1="-19.32" x2="52.3594" y2="13.6942" gradientUnits="userSpaceOnUse">
<stop stop-color="#2BFFF2"/>
<stop offset="1" stop-color="#9921FF"/>
</linearGradient>
</defs>
</svg>
