<svg width="324" height="60" viewBox="0 0 324 60" fill="none" xmlns="http://www.w3.org/2000/svg">
<path d="M83.0153 10.082H95.9682V35.0625H88.9135V14.1298L81.5119 35.0625H71.4503L64.0487 14.1298V35.0625H56.994V10.082H69.9468L76.5389 30.6678L83.0153 10.082Z" fill="#6B7CF9"/>
<path d="M104.064 32.9809C101.635 31.2461 100.479 28.8175 100.479 25.8106C100.479 22.688 101.635 20.375 104.064 18.6402C106.492 16.9055 109.731 16.0959 113.778 16.0959C117.826 16.0959 121.064 16.9055 123.493 18.6402C125.922 20.375 127.078 22.8037 127.078 25.8106C127.078 28.9331 125.922 31.2461 123.493 32.9809C121.064 34.7156 117.826 35.5252 113.778 35.5252C109.731 35.5252 106.492 34.7156 104.064 32.9809ZM109.037 22.5724C107.88 23.3819 107.418 24.4228 107.418 25.6949C107.418 26.9671 107.996 28.0079 109.037 28.8175C110.193 29.627 111.697 30.0896 113.663 30.0896C115.629 30.0896 117.248 29.627 118.289 28.8175C119.445 28.0079 119.908 26.9671 119.908 25.6949C119.908 24.4228 119.329 23.3819 118.289 22.5724C117.132 21.7628 115.629 21.3002 113.663 21.3002C111.812 21.3002 110.193 21.7628 109.037 22.5724Z" fill="#6B7CF9"/>
<path d="M146.045 22.4565C145.466 21.3 143.5 20.7217 140.378 20.7217C138.296 20.7217 137.255 21.0687 137.255 21.6469C137.255 22.2252 137.834 22.5721 138.99 22.6878L146.276 23.9599C151.018 24.7695 153.331 26.6199 153.331 29.5112C153.331 33.5589 149.283 35.525 141.303 35.525C133.786 35.525 129.854 33.3276 129.275 29.0486L135.867 28.8173C136.33 30.0894 138.412 30.6677 141.997 30.6677C144.773 30.6677 146.16 30.4364 146.16 29.8581C146.16 29.3955 145.582 28.9329 144.31 28.7016L136.561 27.3138C134.364 26.9669 132.745 26.273 131.704 25.2321C130.663 24.3069 130.085 23.1504 130.085 21.7626C130.085 20.7217 130.316 19.6809 130.895 18.8713C131.473 18.0618 132.282 17.4835 133.323 17.0209C134.364 16.5583 135.521 16.2114 136.677 16.0957C137.834 15.8644 139.221 15.7488 140.725 15.7488C142.228 15.7488 143.616 15.8644 145.004 16.0957C146.276 16.327 147.548 16.674 148.589 17.1366C149.63 17.5992 150.555 18.2931 151.249 19.1026C151.943 19.9122 152.405 20.8374 152.521 21.9939L146.045 22.4565Z" fill="#6B7CF9"/>
<path d="M171.95 15.9801C174.842 15.9801 177.039 16.7897 178.542 18.4088C180.046 20.0279 180.74 22.3409 180.74 25.3478V35.1781H173.685V27.5452C173.685 25.6948 173.338 24.3069 172.644 23.3817C171.95 22.4565 170.794 21.9939 169.175 21.9939C167.324 21.9939 165.937 22.5722 165.011 23.613C164.086 24.6539 163.624 26.1574 163.624 28.1234V35.2937H156.569V8.80981H163.624V19.6809C165.358 17.2523 168.134 15.9801 171.95 15.9801Z" fill="#6B7CF9"/>
<path d="M187.91 32.9809C185.481 31.2461 184.325 28.8175 184.325 25.8106C184.325 22.688 185.481 20.375 187.91 18.6402C190.339 16.9055 193.577 16.0959 197.625 16.0959C201.672 16.0959 204.911 16.9055 207.339 18.6402C209.768 20.375 210.924 22.8037 210.924 25.8106C210.924 28.9331 209.768 31.2461 207.339 32.9809C204.911 34.7156 201.672 35.5252 197.625 35.5252C193.577 35.5252 190.339 34.7156 187.91 32.9809ZM192.999 22.5724C191.842 23.3819 191.264 24.4228 191.264 25.6949C191.264 26.9671 191.842 28.0079 192.999 28.8175C194.155 29.627 195.659 30.0896 197.625 30.0896C199.591 30.0896 201.21 29.627 202.251 28.8175C203.292 28.0079 203.985 26.9671 203.985 25.6949C203.985 24.4228 203.407 23.3819 202.251 22.5724C201.094 21.7628 199.591 21.3002 197.625 21.3002C195.659 21.3002 194.155 21.7628 192.999 22.5724Z" fill="#6B7CF9"/>
<path d="M217.517 32.9809C215.088 31.2461 213.931 28.8175 213.931 25.8106C213.931 22.688 215.088 20.375 217.517 18.6402C219.945 16.9055 223.183 16.0959 227.231 16.0959C231.279 16.0959 234.517 16.9055 236.946 18.6402C239.374 20.375 240.531 22.8037 240.531 25.8106C240.531 28.9331 239.374 31.2461 236.946 32.9809C234.517 34.7156 231.279 35.5252 227.231 35.5252C223.183 35.5252 219.945 34.7156 217.517 32.9809ZM222.605 22.5724C221.449 23.3819 220.87 24.4228 220.87 25.6949C220.87 26.9671 221.449 28.0079 222.605 28.8175C223.762 29.627 225.265 30.0896 227.231 30.0896C229.197 30.0896 230.816 29.627 231.857 28.8175C232.898 28.0079 233.592 26.9671 233.592 25.6949C233.592 24.4228 233.014 23.3819 231.857 22.5724C230.701 21.7628 229.197 21.3002 227.231 21.3002C225.265 21.3002 223.762 21.7628 222.605 22.5724Z" fill="#6B7CF9"/>
<path d="M269.559 35.0624H260.307L253.715 28.4704H251.286V35.0624H244.232V8.80981H251.286V22.9191H253.831L260.191 16.3271H268.865L259.035 25.1165L269.559 35.0624Z" fill="#6B7CF9"/>
<path d="M283.206 15.98C290.954 15.98 294.887 19.2182 294.887 25.4633V35.1779H288.295V31.5928C286.328 34.2527 283.206 35.6405 279.043 35.6405C276.267 35.6405 274.185 35.0623 272.682 34.0214C271.178 32.9806 270.484 31.5928 270.484 29.7424C270.484 27.7763 271.41 26.3885 273.26 25.4633C275.11 24.5381 277.77 24.0755 281.356 23.8442L287.832 23.4972C287.601 21.7625 286.097 20.8373 283.322 20.8373C280.893 20.8373 279.274 21.4155 278.696 22.572H272.103C272.219 21.4155 272.682 20.259 273.376 19.4495C274.07 18.5243 274.995 17.946 276.036 17.4834C277.076 17.0208 278.233 16.6739 279.505 16.4426C280.43 16.0956 281.818 15.98 283.206 15.98ZM281.009 30.7832C282.975 30.7832 284.594 30.4363 285.866 29.7424C287.138 29.0485 287.832 28.3546 287.832 27.545V27.3137L282.281 27.6607C280.662 27.7763 279.389 27.892 278.696 28.1233C277.886 28.3546 277.539 28.7015 277.539 29.2798C277.539 30.3206 278.696 30.7832 281.009 30.7832Z" fill="#6B7CF9"/>
<path d="M314.663 15.9801C317.554 15.9801 319.751 16.7897 321.255 18.4088C322.758 20.0279 323.452 22.3409 323.452 25.3478V35.1781H316.513V27.5452C316.513 25.6948 316.166 24.3069 315.472 23.3817C314.778 22.4565 313.622 21.9939 312.003 21.9939C310.152 21.9939 308.765 22.5722 307.839 23.613C306.914 24.6539 306.452 26.1574 306.452 28.1234V35.2937H299.166V8.80981H306.22V19.6809C308.071 17.2523 310.962 15.9801 314.663 15.9801Z" fill="#6B7CF9"/>
<path d="M63.9331 55.3011H64.974V57.8454H64.1644V56.1107H57.341V57.8454H56.5315V55.4168H57.2254C57.4567 55.1855 57.5723 54.7229 57.688 54.1446C57.8036 53.5664 57.9193 53.1038 57.9193 52.6412C57.9193 52.1786 58.0349 51.369 58.1506 50.2125C58.1506 49.9812 58.1506 49.7499 58.1506 49.6343H64.0488V55.3011H63.9331ZM63.1236 55.3011V50.3282H58.8445C58.7288 51.716 58.6132 52.8725 58.4975 53.5664C58.3819 54.3759 58.2662 54.9542 58.0349 55.3011H63.1236Z" fill="white"/>
<path d="M71.7973 55.3011C71.1034 54.7228 70.6408 53.9133 70.6408 52.8724C70.6408 51.8316 70.9878 51.022 71.7973 50.4438C72.4912 49.8655 73.5321 49.5186 74.8042 49.5186C76.0764 49.5186 77.0016 49.8655 77.8111 50.4438C78.505 51.022 78.9676 51.8316 78.9676 52.8724C78.9676 53.9133 78.6207 54.7228 77.8111 55.3011C77.1172 55.8793 76.0764 56.2263 74.8042 56.2263C73.5321 56.2263 72.4912 55.8793 71.7973 55.3011ZM72.3756 50.9064C71.7973 51.369 71.566 52.0629 71.566 52.8724C71.566 53.682 71.7973 54.3759 72.3756 54.8385C72.9538 55.3011 73.7634 55.5324 74.6886 55.5324C75.6138 55.5324 76.4233 55.3011 77.0016 54.8385C77.5798 54.3759 77.9268 53.682 77.9268 52.8724C77.9268 52.0629 77.6955 51.369 77.1172 50.9064C76.539 50.4438 75.7294 50.2125 74.8042 50.2125C73.879 50.2125 72.9538 50.4438 72.3756 50.9064Z" fill="white"/>
<path d="M92.6144 53.9134C92.4987 54.6073 92.0361 55.1855 91.3422 55.6481C90.6483 55.9951 89.8388 56.2264 88.9136 56.2264C87.6414 56.2264 86.7162 55.8794 86.0223 55.3012C85.3284 54.7229 84.9815 53.9134 84.9815 52.7569C84.9815 51.6004 85.3284 50.7908 86.0223 50.2126C86.7162 49.6343 87.7571 49.2874 88.9136 49.2874C89.8388 49.2874 90.6483 49.5187 91.3422 49.8656C92.0361 50.2126 92.3831 50.7908 92.6144 51.4847L91.8048 51.6004C91.6892 51.1378 91.3422 50.6752 90.764 50.4439C90.3014 50.2126 89.6075 49.9813 88.9136 49.9813C87.9884 49.9813 87.2945 50.2126 86.7162 50.6752C86.138 51.1378 85.9067 51.8317 85.9067 52.6412C85.9067 53.4508 86.138 54.1447 86.7162 54.6073C87.2945 55.0699 88.104 55.3012 89.0292 55.3012C89.7231 55.3012 90.417 55.1855 90.8796 54.8386C91.3422 54.4916 91.6892 54.1447 91.9205 53.5664L92.6144 53.9134Z" fill="white"/>
<path d="M98.0499 50.3282V49.6343H105.22V50.3282H102.098V56.1107H101.172V50.3282H98.0499Z" fill="white"/>
<path d="M114.588 49.4031C115.744 49.4031 116.554 49.6344 117.132 49.9813C117.71 50.4439 117.942 51.0222 117.942 51.7161V55.8795H117.132V54.376C116.901 54.8386 116.438 55.3012 115.744 55.6482C115.166 55.9951 114.357 56.1108 113.431 56.1108C112.391 56.1108 111.697 55.9951 111.234 55.6482C110.887 55.4169 110.656 54.9543 110.656 54.376C110.656 53.7978 110.887 53.3352 111.465 52.9882C112.044 52.6413 112.853 52.5256 114.01 52.41L117.017 52.1787V51.6004C117.017 51.1378 116.785 50.7909 116.323 50.4439C115.86 50.097 115.282 49.9813 114.472 49.9813C113.778 49.9813 113.2 50.097 112.738 50.3283C112.275 50.5596 111.928 50.9065 111.928 51.3691H111.118C111.234 50.6752 111.581 50.2126 112.159 49.8657C112.853 49.6344 113.663 49.4031 114.588 49.4031ZM113.778 55.5325C114.819 55.5325 115.629 55.3012 116.207 54.8386C116.785 54.376 117.132 53.9134 117.132 53.2195V52.7569L114.241 52.9882C112.506 53.1039 111.581 53.5665 111.581 54.376C111.581 54.723 111.812 54.9543 112.159 55.1856C112.506 55.4169 113.084 55.5325 113.778 55.5325Z" fill="white"/>
<path d="M129.969 52.7568C131.357 52.8725 132.051 53.4507 132.051 54.3759C132.051 55.5324 131.126 56.1107 129.16 56.1107H124.881V49.6343H128.929C129.854 49.6343 130.548 49.7499 131.01 50.0969C131.473 50.4438 131.704 50.7908 131.704 51.2534C131.82 52.0629 131.242 52.5255 129.969 52.7568ZM125.922 50.2125V52.4099H128.929C130.316 52.4099 130.895 52.0629 130.895 51.2534C130.895 50.5595 130.201 50.0969 128.813 50.0969H125.922V50.2125ZM129.044 55.4168C129.854 55.4168 130.432 55.3011 130.779 55.0698C131.126 54.8385 131.242 54.6072 131.242 54.2603C131.242 53.9133 131.126 53.5664 130.779 53.3351C130.432 53.1038 129.854 52.9881 129.044 52.9881H125.922V55.3011H129.044V55.4168Z" fill="white"/>
<path d="M146.392 56.1107H145.12L141.303 53.2194H139.568V56.1107H138.643V49.6343H139.568V52.5255H141.303L145.004 49.6343H146.16L141.997 52.7568L146.392 56.1107Z" fill="white"/>
<path d="M155.759 49.4031C156.916 49.4031 157.725 49.6344 158.304 49.9813C158.882 50.3283 159.113 51.0222 159.113 51.7161V55.8795H158.304V54.376C158.072 54.8386 157.61 55.3012 156.916 55.6482C156.338 55.9951 155.528 56.1108 154.603 56.1108C153.562 56.1108 152.868 55.9951 152.406 55.6482C151.943 55.3012 151.712 54.8386 151.712 54.376C151.712 53.7978 151.943 53.3352 152.521 52.9882C153.099 52.6413 153.909 52.5256 155.065 52.41L158.072 52.1787V51.6004C158.072 51.1378 157.841 50.7909 157.494 50.4439C157.032 50.097 156.453 49.9813 155.644 49.9813C154.95 49.9813 154.372 50.097 153.909 50.3283C153.446 50.5596 153.099 50.9065 153.099 51.3691H152.29C152.406 50.6752 152.752 50.2126 153.331 49.8657C154.025 49.6344 154.834 49.4031 155.759 49.4031ZM154.95 55.5325C155.991 55.5325 156.8 55.3012 157.378 54.8386C157.957 54.376 158.304 53.9134 158.304 53.2195V52.7569L155.412 52.9882C153.678 53.1039 152.752 53.5665 152.752 54.376C152.752 54.723 152.984 54.9543 153.331 55.1856C153.678 55.4169 154.256 55.5325 154.95 55.5325Z" fill="white"/>
<path d="M182.822 56.1107H181.549L177.733 53.2194H175.998V56.1107H175.073V49.6343H175.998V52.5255H177.733L181.434 49.6343H182.59L178.427 52.7568L182.822 56.1107Z" fill="white"/>
<path d="M192.305 49.4031C193.461 49.4031 194.271 49.6344 194.849 49.9813C195.427 50.3283 195.659 51.0222 195.659 51.7161V55.8795H194.849V54.376C194.618 54.8386 194.155 55.3012 193.461 55.6482C192.883 55.9951 192.074 56.1108 191.148 56.1108C190.108 56.1108 189.414 55.9951 188.951 55.6482C188.488 55.3012 188.257 54.8386 188.257 54.376C188.257 53.7978 188.488 53.3352 189.067 52.9882C189.645 52.6413 190.454 52.5256 191.611 52.41L194.618 52.1787V51.6004C194.618 51.1378 194.387 50.7909 194.04 50.4439C193.577 50.097 192.999 49.9813 192.189 49.9813C191.495 49.9813 190.917 50.097 190.454 50.3283C189.992 50.5596 189.645 50.9065 189.645 51.3691H188.835C188.951 50.6752 189.298 50.2126 189.876 49.8657C190.454 49.6344 191.264 49.4031 192.305 49.4031ZM191.495 55.5325C192.536 55.5325 193.346 55.3012 193.924 54.8386C194.502 54.376 194.849 53.9134 194.849 53.2195V52.7569L191.958 52.9882C190.223 53.1039 189.298 53.5665 189.298 54.376C189.298 54.723 189.529 54.9543 189.876 55.1856C190.223 55.4169 190.686 55.5325 191.495 55.5325Z" fill="white"/>
<path d="M203.754 49.6343H209.652V56.1107H208.727V50.3282H204.564C204.564 50.5595 204.564 50.9064 204.448 51.369C204.448 52.0629 204.332 52.5255 204.332 52.8725C204.332 53.2194 204.217 53.5664 204.217 54.029C204.101 54.4916 204.101 54.8385 203.986 54.9542C203.87 55.1855 203.754 55.3011 203.639 55.5324C203.523 55.7637 203.292 55.8794 203.06 55.995C202.829 56.1107 202.598 56.1107 202.366 56.1107C202.251 56.1107 202.135 56.1107 201.788 56.1107V55.4168C201.904 55.4168 202.135 55.4168 202.135 55.4168C202.713 55.4168 203.06 55.0698 203.292 54.2603C203.523 53.4507 203.639 51.9473 203.754 49.6343Z" fill="white"/>
<path d="M220.524 52.1786C222.49 52.1786 223.53 52.8725 223.53 54.1446C223.53 55.4168 222.49 56.1107 220.524 56.1107H217.054H216.591V49.6343H217.517V52.1786H220.524ZM220.524 55.4168C221.333 55.4168 221.911 55.3011 222.143 55.0698C222.49 54.8385 222.605 54.4916 222.605 54.1446C222.605 53.7977 222.49 53.4507 222.143 53.2194C221.796 52.9881 221.217 52.8725 220.524 52.8725H217.517V55.4168H220.524Z" fill="white"/>
<path d="M230.007 56.1107V49.6343H230.932V52.4099H236.483V49.6343H237.408V56.1107H236.483V53.2194H230.932V56.1107H230.007Z" fill="white"/>
<path d="M247.817 49.4031C248.974 49.4031 249.783 49.6344 250.361 49.9813C250.94 50.3283 251.171 51.0222 251.171 51.7161V55.8795H250.361V54.376C250.13 54.8386 249.667 55.3012 248.974 55.6482C248.395 55.9951 247.586 56.1108 246.66 56.1108C245.62 56.1108 244.926 55.9951 244.463 55.6482C244.001 55.3012 243.769 54.8386 243.769 54.376C243.769 53.7978 244.001 53.3352 244.579 52.9882C245.157 52.6413 245.967 52.5256 247.123 52.41L250.13 52.1787V51.6004C250.13 51.1378 249.899 50.7909 249.552 50.4439C249.089 50.097 248.511 49.9813 247.701 49.9813C247.007 49.9813 246.429 50.097 245.967 50.3283C245.504 50.5596 245.157 50.9065 245.157 51.3691H244.347C244.463 50.6752 244.81 50.2126 245.388 49.8657C246.082 49.6344 246.892 49.4031 247.817 49.4031ZM247.007 55.5325C248.048 55.5325 248.858 55.3012 249.436 54.8386C250.014 54.376 250.361 53.9134 250.361 53.2195V52.7569L247.47 52.9882C245.735 53.1039 244.81 53.5665 244.81 54.376C244.81 54.723 245.041 54.9543 245.388 55.1856C245.735 55.4169 246.314 55.5325 247.007 55.5325Z" fill="white"/>
<path d="M21.952 13.4356C21.6051 12.7417 21.4894 11.9321 21.8364 11.1226C20.7955 11.7008 20.5642 12.3947 20.7955 13.4356C21.0268 14.0138 21.2581 14.7077 21.6051 15.286C22.1833 16.4425 22.5303 17.599 21.952 18.8711C22.0677 18.7555 22.1833 18.7555 22.1833 18.7555C23.1085 18.0616 23.4555 17.1364 22.9929 15.9799C22.7616 15.0547 22.299 14.2451 21.952 13.4356Z" fill="url(#paint0_linear_804_7)"/>
<path d="M22.9929 10.4288C22.7616 9.85052 22.5303 9.27227 22.7616 8.57837C22.0677 9.04097 21.952 9.38792 22.1833 10.0818C22.299 10.3131 22.299 10.5444 22.4146 10.6601C22.7616 11.4696 23.2242 12.2792 22.8772 13.32C23.5711 12.8574 23.6868 12.3948 23.5711 11.7009C23.4555 11.2383 23.2242 10.7757 22.9929 10.4288Z" fill="url(#paint1_linear_804_7)"/>
<path d="M43.9256 17.3678C41.2656 5.91844 30.6258 -1.48318 18.8295 0.251574C12.2374 1.29243 7.03316 4.64628 3.56365 10.1975C0.209791 15.2861 -0.831061 20.8373 0.672392 26.7355C1.71324 30.7832 3.56365 34.484 5.64535 37.9536C9.92441 45.0082 15.013 51.369 20.6799 57.3828C21.1425 57.961 21.7207 58.4236 22.4146 59.1175C22.6459 58.7706 22.7616 58.5393 22.9929 58.308C27.272 53.7976 31.2041 49.1716 34.7892 44.083C38.0274 39.5727 40.9187 34.9466 42.8847 29.7424C44.3882 25.8103 44.8508 21.6469 43.9256 17.3678ZM24.4963 36.9127C24.3807 36.4501 24.265 35.8718 24.0337 35.4092C23.8024 34.831 23.8024 34.3684 23.8024 33.7901C23.8024 33.6745 23.9181 33.5588 24.0337 33.4432C24.3807 33.2119 24.8433 32.9806 25.1902 32.7493C25.8841 32.2867 26.4624 31.8241 26.578 31.0145H26.6937C27.2719 31.1302 27.5033 30.8989 27.7346 30.3206C28.0815 29.5111 28.7754 29.0485 29.4693 28.7015C29.585 28.5859 29.7006 28.5859 29.8163 28.3546C27.6189 28.3546 25.3059 28.3546 23.1085 28.3546C23.1085 27.7763 23.2242 27.6607 23.6868 27.545C24.265 27.4294 24.265 27.3137 23.9181 26.8511C23.9181 26.8511 23.9181 26.8511 23.8024 26.7355C23.2242 26.0416 23.2242 25.8103 23.9181 25.1164C24.1494 24.8851 24.3807 24.7694 24.612 24.5381C25.0746 24.0755 25.0746 23.8442 24.4963 23.4973C24.3807 23.4973 24.3807 23.3816 24.265 23.266C24.9589 22.4564 25.8841 21.7625 25.4215 20.4904C23.2242 20.4904 20.9112 20.4904 18.5982 20.4904C18.1356 21.7625 19.0608 22.4564 19.7547 23.266C19.639 23.3816 19.639 23.3816 19.5234 23.4973C18.9451 23.8442 18.8295 24.1912 19.4077 24.6538C19.7547 25.0007 20.1016 25.232 20.3329 25.579C20.6799 25.9259 20.6799 26.2729 20.3329 26.6198C20.2173 26.7355 20.2173 26.7355 20.1016 26.8511C19.639 27.3137 19.7547 27.545 20.3329 27.6607C20.7955 27.7763 20.9112 28.0076 20.9112 28.4702C18.5982 28.4702 16.4008 28.4702 14.2035 28.4702C14.2035 28.4702 14.2035 28.4702 14.2035 28.5859C14.4348 28.8172 14.7817 28.9328 15.013 29.1641C15.7069 29.6267 16.1695 30.205 16.5165 30.8989C16.5165 31.0145 16.7478 31.1302 16.8634 31.1302C16.9791 31.1302 17.2104 31.1302 17.4417 31.1302C17.673 32.4023 18.8295 32.9806 19.8703 33.4432C20.2173 33.5588 20.3329 33.7901 20.3329 34.2527C20.2173 34.7153 20.2173 35.1779 20.1016 35.6405C19.8703 36.1031 19.7547 36.5657 19.639 37.0283C12.7 35.8718 7.14881 29.6267 7.26446 22.3408C7.26446 13.8983 14.4348 7.42189 22.1833 7.53754C29.9319 7.42189 36.9866 13.7827 36.9866 22.3408C37.1022 29.6267 31.6667 35.7562 24.4963 36.9127Z" fill="url(#paint2_linear_804_7)"/>
<defs>
<linearGradient id="paint0_linear_804_7" x1="21.8555" y1="5.77605" x2="27.4069" y2="7.26368" gradientUnits="userSpaceOnUse">
<stop stop-color="#2BFFF2"/>
<stop offset="1" stop-color="#9921FF"/>
</linearGradient>
<linearGradient id="paint1_linear_804_7" x1="22.781" y1="5.30662" x2="26.208" y2="6.23434" gradientUnits="userSpaceOnUse">
<stop stop-color="#2BFFF2"/>
<stop offset="1" stop-color="#9921FF"/>
</linearGradient>
<linearGradient id="paint2_linear_804_7" x1="20.417" y1="-40.7911" x2="96.7144" y2="7.12368" gradientUnits="userSpaceOnUse">
<stop stop-color="#2BFFF2"/>
<stop offset="1" stop-color="#9921FF"/>
</linearGradient>
</defs>
</svg>
