<svg width="25" height="25" viewBox="0 0 25 25" fill="none" xmlns="http://www.w3.org/2000/svg">
<g clip-path="url(#clip0_38_15)">
<path d="M25 12.5C25 5.59573 19.4043 0 12.5 0C5.59573 0 0 5.59573 0 12.5C0 18.7403 4.57031 23.9111 10.5469 24.8486V16.1133H7.37302V12.5H10.5469V9.74609C10.5469 6.61375 12.4121 4.88281 15.2685 4.88281C16.6357 4.88281 18.0664 5.12695 18.0664 5.12695V8.20313H16.4893C14.9365 8.20313 14.4531 9.1675 14.4531 10.1563V12.5H17.9199L17.3657 16.1133H14.4531V24.8486C20.4297 23.9111 25 18.7403 25 12.5Z" fill="white"/>
</g>
<defs>
<clipPath id="clip0_38_15">
<rect width="25" height="25" fill="white"/>
</clipPath>
</defs>
</svg>
