<svg width="25" height="25" viewBox="0 0 25 25" fill="none" xmlns="http://www.w3.org/2000/svg">
<path fill-rule="evenodd" clip-rule="evenodd" d="M25 12.5C25 19.4036 19.4036 25 12.5 25C5.59644 25 0 19.4036 0 12.5C0 5.59644 5.59644 0 12.5 0C19.4036 0 25 5.59644 25 12.5ZM16.3895 15.0057C15.6804 15.4518 14.9082 15.768 14.108 15.9512L16.3042 18.1462C16.7547 18.5944 16.7547 19.3235 16.3042 19.773C15.8537 20.2235 15.1277 20.2235 14.6772 19.773L12.5188 17.6156L10.3604 19.773C10.134 19.9972 9.84099 20.1102 9.54591 20.1102C9.25293 20.1102 8.95898 19.9972 8.73365 19.773C8.28316 19.3236 8.28316 18.5967 8.73365 18.1462L10.9264 15.9512C10.1262 15.768 9.35497 15.4518 8.64589 15.0057C8.10876 14.666 7.94573 13.9548 8.28526 13.4177C8.6248 12.8785 9.33274 12.7159 9.87214 13.0548C11.4824 14.0658 13.5532 14.0669 15.1634 13.0548C15.7015 12.7158 16.4106 12.8783 16.7503 13.4177C17.0896 13.9558 16.9266 14.666 16.3895 15.0057ZM14.1456 8.81946C14.1456 7.92172 13.4166 7.19203 12.5188 7.19203C11.6232 7.19203 10.8909 7.92172 10.8909 8.81946C10.8909 9.7151 11.6232 10.4448 12.5188 10.4448C13.4166 10.4448 14.1456 9.7151 14.1456 8.81946ZM16.4461 8.81946C16.4461 10.9835 14.6852 12.7458 12.5188 12.7458C10.3515 12.7458 8.59041 10.9835 8.59041 8.81736C8.59041 6.65118 10.3515 4.88894 12.5188 4.88894C14.6852 4.88894 16.4461 6.65102 16.4461 8.81946Z" fill="white"/>
</svg>
