<svg width="19" height="23" viewBox="0 0 19 23" fill="none" xmlns="http://www.w3.org/2000/svg">
<path d="M10.1072 6.44732C10.1072 6.167 10.1624 5.83062 10.2727 5.43818C10.4934 4.37297 11.0452 3.53201 11.8177 2.85925C12.0936 2.63499 12.1488 2.24255 11.8729 1.96223C11.6522 1.68191 11.2659 1.62585 10.99 1.8501C10.6038 2.18648 10.3279 2.52287 10.052 2.85925C9.61058 0.336382 4.03758 0 4.03758 0C4.03758 0 6.41024 6.05488 9.11398 4.76541C8.89326 5.43818 8.83808 6.05488 8.83808 6.44732C6.57578 6.167 -0.762919 5.77456 0.0647536 13.0628C0.0647536 13.0628 1.05796 25.9575 9.50022 22.3694C17.9425 25.9575 18.9357 13.0628 18.9357 13.0628C19.7634 5.77456 12.3695 6.167 10.1072 6.44732Z" fill="url(#paint0_linear_33_5)"/>
<defs>
<linearGradient id="paint0_linear_33_5" x1="8.73661" y1="-15.87" x2="39.5569" y2="5.41812" gradientUnits="userSpaceOnUse">
<stop stop-color="#2BFFF2"/>
<stop offset="1" stop-color="#9921FF"/>
</linearGradient>
</defs>
</svg>
