<svg width="29" height="31" viewBox="0 0 29 31" fill="none" xmlns="http://www.w3.org/2000/svg">
<g clip-path="url(#clip0_335_54)">
<path d="M14.5 31C22.5081 31 29 24.0604 29 15.5C29 6.93961 22.5081 0 14.5 0C6.49189 0 0 6.93961 0 15.5C0 24.0604 6.49189 31 14.5 31Z" fill="url(#paint0_linear_335_54)"/>
<path d="M5.40018 16.2583C7.09522 15.2602 8.98735 14.4272 10.7553 13.59C13.7968 12.2186 16.8503 10.871 19.9347 9.6164C20.5348 9.40263 21.6131 9.19357 21.7188 10.1442C21.661 11.4899 21.4228 12.8277 21.2594 14.1655C20.8448 17.1074 20.3656 20.0392 19.8982 22.9714C19.7372 23.9481 18.5926 24.4537 17.8603 23.8287C16.1002 22.5578 14.3266 21.2993 12.589 19.999C12.0198 19.3808 12.5476 18.4929 13.056 18.0514C14.5056 16.5243 16.043 15.2268 17.4169 13.6208C17.7875 12.6641 16.6925 13.4703 16.3313 13.7174C14.3467 15.1793 12.4107 16.7304 10.3184 18.0153C9.24962 18.6442 8.00395 18.1067 6.93566 17.7558C5.9778 17.3318 4.57419 16.9048 5.40008 16.2583L5.40018 16.2583Z" fill="white"/>
</g>
<defs>
<linearGradient id="paint0_linear_335_54" x1="10.8767" y1="1.2927" x2="2.77168" y2="18.9833" gradientUnits="userSpaceOnUse">
<stop stop-color="#37AEE2"/>
<stop offset="1" stop-color="#1E96C8"/>
</linearGradient>
<clipPath id="clip0_335_54">
<rect width="29" height="31" fill="white"/>
</clipPath>
</defs>
</svg>
