<svg width="31" height="31" viewBox="0 0 31 31" fill="none" xmlns="http://www.w3.org/2000/svg">
<g clip-path="url(#clip0_335_49)">
<path fill-rule="evenodd" clip-rule="evenodd" d="M17.2922 10.8413C17.8957 10.9699 18.3583 11.1992 18.7535 11.5693C19.2621 12.0496 19.5409 12.6308 19.6634 13.4659C19.7463 14.0103 19.7124 14.2244 19.5193 14.4019C19.3387 14.5671 19.0047 14.5731 18.8025 14.4172C18.6555 14.307 18.6094 14.1907 18.5758 13.8756C18.5361 13.4564 18.4624 13.1629 18.3367 12.8907C18.0672 12.3126 17.5923 12.0127 16.7896 11.9149C16.4128 11.8689 16.2995 11.8263 16.1769 11.6824C15.9531 11.4162 16.0391 10.9849 16.3484 10.8258C16.4649 10.7677 16.5138 10.7616 16.7712 10.7769C16.9308 10.7861 17.1667 10.8137 17.2922 10.8413ZM16.6397 8.53154C18.4995 8.80376 19.9393 9.66643 20.8831 11.0675C21.4132 11.8568 21.7441 12.7836 21.8574 13.7778C21.8971 14.1418 21.8971 14.8056 21.8543 14.9158C21.8143 15.0197 21.6857 15.1605 21.5755 15.2186C21.4561 15.2799 21.2018 15.2736 21.0609 15.2002C20.825 15.0808 20.7545 14.8911 20.7545 14.3772C20.7545 13.585 20.5491 12.7497 20.1938 12.1011C19.7894 11.3608 19.2011 10.749 18.4842 10.3237C17.8684 9.95657 16.9585 9.68435 16.1282 9.61702C15.8279 9.59256 15.6625 9.53129 15.5492 9.39978C15.3745 9.20095 15.3561 8.93163 15.5031 8.70834C15.6623 8.4613 15.9074 8.42134 16.6397 8.53154ZM9.42448 6.64417C9.53177 6.68098 9.69719 6.76648 9.79212 6.82775C10.3741 7.21331 11.9948 9.28426 12.525 10.3182C12.8282 10.9086 12.9294 11.346 12.8345 11.6703C12.7364 12.019 12.5741 12.2026 11.8478 12.7868C11.5567 13.0222 11.284 13.2639 11.2411 13.3283C11.1309 13.4874 11.0421 13.7994 11.0421 14.0198C11.0452 14.5305 11.376 15.4576 11.811 16.1704C12.1479 16.724 12.7514 17.4336 13.3489 17.9783C14.0505 18.6208 14.6693 19.0582 15.368 19.4038C16.2658 19.8504 16.8141 19.9635 17.2154 19.777C17.3164 19.731 17.4237 19.67 17.4574 19.6424C17.4879 19.6148 17.724 19.3273 17.9812 19.0091C18.4775 18.3849 18.5908 18.2839 18.9311 18.1677C19.3631 18.0209 19.8042 18.0606 20.2486 18.2871C20.5857 18.4615 21.321 18.9173 21.7957 19.2476C22.4208 19.685 23.7564 20.7741 23.9373 20.9914C24.2558 21.383 24.311 21.8845 24.0967 22.4384C23.87 23.0226 22.9877 24.1178 22.3718 24.5859C21.8143 25.008 21.4191 25.1701 20.8981 25.1945C20.4692 25.2158 20.2914 25.1793 19.7431 24.9528C15.4419 23.1817 12.0074 20.5387 9.28063 16.9074C7.85608 15.0108 6.77132 13.0437 6.02998 11.0033C5.59792 9.81344 5.57661 9.29637 5.9319 8.68751C6.0852 8.43055 6.73766 7.79432 7.21259 7.43952C8.00309 6.85221 8.36758 6.63497 8.65869 6.5737C8.85777 6.53083 9.20409 6.56449 9.42448 6.64417ZM16.4283 6.31383C17.4823 6.44534 18.3338 6.69915 19.2684 7.15519C20.1875 7.60493 20.7758 8.03021 21.554 8.804C22.2832 9.53516 22.6876 10.0888 23.1166 10.9483C23.714 12.1474 24.0541 13.5732 24.1122 15.1423C24.1337 15.6775 24.1182 15.7969 23.9957 15.95C23.763 16.2467 23.2512 16.1977 23.0766 15.8642C23.0214 15.7541 23.0061 15.6594 22.9877 15.2309C22.957 14.5731 22.9112 14.1481 22.8191 13.6402C22.4576 11.6487 21.5016 10.058 19.9759 8.91686C18.7044 7.9624 17.39 7.4974 15.6683 7.39641C15.0861 7.36274 14.9851 7.34143 14.8534 7.24044C14.6083 7.04766 14.5959 6.59501 14.8318 6.38382C14.9759 6.25231 15.0769 6.23391 15.5763 6.24916C15.8371 6.25861 16.22 6.28937 16.4283 6.31383ZM15.5 0C24.0604 0 31 6.93964 31 15.5C31 24.0604 24.0604 31 15.5 31C6.93964 31 0 24.0604 0 15.5C0 6.93964 6.93964 0 15.5 0Z" fill="#7F4DA0"/>
</g>
<defs>
<clipPath id="clip0_335_49">
<rect width="31" height="31" fill="white"/>
</clipPath>
</defs>
</svg>
