<svg width="25" height="25" viewBox="0 0 25 25" fill="none" xmlns="http://www.w3.org/2000/svg">
<path d="M12.5 0C5.59629 0 0 5.59629 0 12.5C0 19.4037 5.59629 25 12.5 25C19.4037 25 25 19.4037 25 12.5C25 5.59629 19.4037 0 12.5 0ZM19.2179 17.2436C18.6845 17.5772 16.5167 17.6766 15.9919 17.2953C15.7041 17.0862 15.4409 16.8246 15.1909 16.5755C15.016 16.4014 14.8175 16.3169 14.6672 16.1279C14.5445 15.9732 14.4603 15.7907 14.3311 15.638C14.1131 15.3818 13.7776 15.1638 13.5122 15.4769C13.1125 15.9478 13.5751 16.8726 13.0421 17.2243C12.8634 17.3424 12.6831 17.3765 12.4597 17.3597L11.9649 17.3822C11.6743 17.3879 11.214 17.3906 10.8833 17.331C10.5145 17.2644 10.2099 17.0629 9.87624 16.9151C9.24312 16.6343 8.64005 16.2516 8.18105 15.7217C6.93187 14.2783 5.25401 12.2934 4.6022 10.4788C4.46815 10.1059 4.11395 9.36742 4.44974 9.0476C4.9063 8.71588 7.14715 8.62245 7.49675 9.13534C7.63865 9.34386 7.72828 9.64878 7.82875 9.88518C7.95386 10.1798 8.02155 10.4574 8.21707 10.7182C8.39011 10.9494 8.51765 11.182 8.65143 11.4355C8.80172 11.7201 8.94362 11.9931 9.12641 12.2549C9.25043 12.4331 9.57837 12.7876 9.78553 12.8139C10.2914 12.8786 10.26 11.6494 10.2223 11.3494C10.1863 11.0602 10.1771 10.7534 10.1866 10.4601C10.1947 10.2099 10.2172 9.85729 10.0691 9.65311C9.8275 9.32003 9.28943 9.56916 9.24745 9.12153C9.33627 8.99453 9.31759 8.88188 9.91091 8.68636C10.3783 8.53282 10.6802 8.53769 10.9884 8.56234C11.6167 8.6127 12.2828 8.44264 12.8894 8.64628C13.4689 8.84153 13.3793 9.66502 13.3598 10.1584C13.3335 10.8319 13.3617 11.4894 13.3598 12.1731C13.359 12.4843 13.3465 12.7873 13.7262 12.7619C14.082 12.7383 14.1183 12.4388 14.2881 12.1918C14.5242 11.8474 14.7411 11.498 14.9816 11.1549C15.3057 10.6911 15.4038 10.1698 15.7089 9.69454C15.8181 9.52475 15.912 9.16296 16.0802 9.02865C16.2075 8.92656 16.4493 8.97991 16.6034 8.97991H16.9698C17.25 8.97991 17.536 8.97774 17.8241 8.98776C18.239 9.00211 18.7037 8.90679 19.115 8.96501C20.8901 9.2155 16.8839 13.0102 17.0924 13.6877C17.2365 14.1557 18.1505 14.6786 18.4803 15.0617C18.9182 15.5722 20.2662 16.5869 19.2179 17.2436Z" fill="white"/>
</svg>
